<?xml version="1.0" encoding="utf-8"?>
<svg xmlns="http://www.w3.org/2000/svg" xmlns:xlink="http://www.w3.org/1999/xlink" width="600" height="400" viewBox="0 0 2400 1600">
<defs>
  <clipPath id="clip000">
    <rect x="0" y="0" width="2400" height="1600"/>
  </clipPath>
</defs>
<path clip-path="url(#clip000)" d="M0 1600 L2400 1600 L2400 0 L0 0  Z" fill="#ffffff" fill-rule="evenodd" fill-opacity="1"/>
<defs>
  <clipPath id="clip001">
    <rect x="480" y="0" width="1681" height="1600"/>
  </clipPath>
</defs>
<path clip-path="url(#clip000)" d="M212.459 1423.18 L2352.76 1423.18 L2352.76 47.2441 L212.459 47.2441  Z" fill="#ffffff" fill-rule="evenodd" fill-opacity="1"/>
<defs>
  <clipPath id="clip002">
    <rect x="212" y="47" width="2141" height="1377"/>
  </clipPath>
</defs>
<polyline clip-path="url(#clip002)" style="stroke:#000000; stroke-linecap:round; stroke-linejoin:round; stroke-width:2; stroke-opacity:0.1; fill:none" points="403.213,1423.18 403.213,47.2441 "/>
<polyline clip-path="url(#clip002)" style="stroke:#000000; stroke-linecap:round; stroke-linejoin:round; stroke-width:2; stroke-opacity:0.1; fill:none" points="696.301,1423.18 696.301,47.2441 "/>
<polyline clip-path="url(#clip002)" style="stroke:#000000; stroke-linecap:round; stroke-linejoin:round; stroke-width:2; stroke-opacity:0.1; fill:none" points="989.388,1423.18 989.388,47.2441 "/>
<polyline clip-path="url(#clip002)" style="stroke:#000000; stroke-linecap:round; stroke-linejoin:round; stroke-width:2; stroke-opacity:0.1; fill:none" points="1282.48,1423.18 1282.48,47.2441 "/>
<polyline clip-path="url(#clip002)" style="stroke:#000000; stroke-linecap:round; stroke-linejoin:round; stroke-width:2; stroke-opacity:0.1; fill:none" points="1575.56,1423.18 1575.56,47.2441 "/>
<polyline clip-path="url(#clip002)" style="stroke:#000000; stroke-linecap:round; stroke-linejoin:round; stroke-width:2; stroke-opacity:0.1; fill:none" points="1868.65,1423.18 1868.65,47.2441 "/>
<polyline clip-path="url(#clip002)" style="stroke:#000000; stroke-linecap:round; stroke-linejoin:round; stroke-width:2; stroke-opacity:0.1; fill:none" points="2161.74,1423.18 2161.74,47.2441 "/>
<polyline clip-path="url(#clip002)" style="stroke:#000000; stroke-linecap:round; stroke-linejoin:round; stroke-width:2; stroke-opacity:0.1; fill:none" points="212.459,1287.01 2352.76,1287.01 "/>
<polyline clip-path="url(#clip002)" style="stroke:#000000; stroke-linecap:round; stroke-linejoin:round; stroke-width:2; stroke-opacity:0.1; fill:none" points="212.459,1107.2 2352.76,1107.2 "/>
<polyline clip-path="url(#clip002)" style="stroke:#000000; stroke-linecap:round; stroke-linejoin:round; stroke-width:2; stroke-opacity:0.1; fill:none" points="212.459,927.395 2352.76,927.395 "/>
<polyline clip-path="url(#clip002)" style="stroke:#000000; stroke-linecap:round; stroke-linejoin:round; stroke-width:2; stroke-opacity:0.1; fill:none" points="212.459,747.587 2352.76,747.587 "/>
<polyline clip-path="url(#clip002)" style="stroke:#000000; stroke-linecap:round; stroke-linejoin:round; stroke-width:2; stroke-opacity:0.1; fill:none" points="212.459,567.78 2352.76,567.78 "/>
<polyline clip-path="url(#clip002)" style="stroke:#000000; stroke-linecap:round; stroke-linejoin:round; stroke-width:2; stroke-opacity:0.1; fill:none" points="212.459,387.972 2352.76,387.972 "/>
<polyline clip-path="url(#clip002)" style="stroke:#000000; stroke-linecap:round; stroke-linejoin:round; stroke-width:2; stroke-opacity:0.1; fill:none" points="212.459,208.165 2352.76,208.165 "/>
<polyline clip-path="url(#clip000)" style="stroke:#000000; stroke-linecap:round; stroke-linejoin:round; stroke-width:4; stroke-opacity:1; fill:none" points="212.459,1423.18 2352.76,1423.18 "/>
<polyline clip-path="url(#clip000)" style="stroke:#000000; stroke-linecap:round; stroke-linejoin:round; stroke-width:4; stroke-opacity:1; fill:none" points="403.213,1423.18 403.213,1404.28 "/>
<polyline clip-path="url(#clip000)" style="stroke:#000000; stroke-linecap:round; stroke-linejoin:round; stroke-width:4; stroke-opacity:1; fill:none" points="696.301,1423.18 696.301,1404.28 "/>
<polyline clip-path="url(#clip000)" style="stroke:#000000; stroke-linecap:round; stroke-linejoin:round; stroke-width:4; stroke-opacity:1; fill:none" points="989.388,1423.18 989.388,1404.28 "/>
<polyline clip-path="url(#clip000)" style="stroke:#000000; stroke-linecap:round; stroke-linejoin:round; stroke-width:4; stroke-opacity:1; fill:none" points="1282.48,1423.18 1282.48,1404.28 "/>
<polyline clip-path="url(#clip000)" style="stroke:#000000; stroke-linecap:round; stroke-linejoin:round; stroke-width:4; stroke-opacity:1; fill:none" points="1575.56,1423.18 1575.56,1404.28 "/>
<polyline clip-path="url(#clip000)" style="stroke:#000000; stroke-linecap:round; stroke-linejoin:round; stroke-width:4; stroke-opacity:1; fill:none" points="1868.65,1423.18 1868.65,1404.28 "/>
<polyline clip-path="url(#clip000)" style="stroke:#000000; stroke-linecap:round; stroke-linejoin:round; stroke-width:4; stroke-opacity:1; fill:none" points="2161.74,1423.18 2161.74,1404.28 "/>
<path clip-path="url(#clip000)" d="M372.114 1468.75 L401.789 1468.75 L401.789 1472.69 L372.114 1472.69 L372.114 1468.75 Z" fill="#000000" fill-rule="nonzero" fill-opacity="1" /><path clip-path="url(#clip000)" d="M424.729 1455.09 L412.924 1473.54 L424.729 1473.54 L424.729 1455.09 M423.502 1451.02 L429.382 1451.02 L429.382 1473.54 L434.312 1473.54 L434.312 1477.43 L429.382 1477.43 L429.382 1485.58 L424.729 1485.58 L424.729 1477.43 L409.127 1477.43 L409.127 1472.92 L423.502 1451.02 Z" fill="#000000" fill-rule="nonzero" fill-opacity="1" /><path clip-path="url(#clip000)" d="M665.769 1468.75 L695.444 1468.75 L695.444 1472.69 L665.769 1472.69 L665.769 1468.75 Z" fill="#000000" fill-rule="nonzero" fill-opacity="1" /><path clip-path="url(#clip000)" d="M719.703 1466.95 Q723.06 1467.66 724.935 1469.93 Q726.833 1472.2 726.833 1475.53 Q726.833 1480.65 723.315 1483.45 Q719.796 1486.25 713.315 1486.25 Q711.139 1486.25 708.824 1485.81 Q706.532 1485.39 704.079 1484.54 L704.079 1480.02 Q706.023 1481.16 708.338 1481.74 Q710.653 1482.32 713.176 1482.32 Q717.574 1482.32 719.865 1480.58 Q722.18 1478.84 722.18 1475.53 Q722.18 1472.48 720.027 1470.77 Q717.898 1469.03 714.078 1469.03 L710.051 1469.03 L710.051 1465.19 L714.264 1465.19 Q717.713 1465.19 719.541 1463.82 Q721.37 1462.43 721.37 1459.84 Q721.37 1457.18 719.472 1455.77 Q717.597 1454.33 714.078 1454.33 Q712.157 1454.33 709.958 1454.75 Q707.759 1455.16 705.12 1456.04 L705.12 1451.88 Q707.782 1451.14 710.097 1450.77 Q712.435 1450.39 714.495 1450.39 Q719.819 1450.39 722.921 1452.83 Q726.023 1455.23 726.023 1459.35 Q726.023 1462.22 724.379 1464.21 Q722.736 1466.18 719.703 1466.95 Z" fill="#000000" fill-rule="nonzero" fill-opacity="1" /><path clip-path="url(#clip000)" d="M959.331 1468.75 L989.007 1468.75 L989.007 1472.69 L959.331 1472.69 L959.331 1468.75 Z" fill="#000000" fill-rule="nonzero" fill-opacity="1" /><path clip-path="url(#clip000)" d="M1003.13 1481.64 L1019.45 1481.64 L1019.45 1485.58 L997.502 1485.58 L997.502 1481.64 Q1000.16 1478.89 1004.75 1474.26 Q1009.35 1469.61 1010.53 1468.27 Q1012.78 1465.74 1013.66 1464.01 Q1014.56 1462.25 1014.56 1460.56 Q1014.56 1457.8 1012.62 1456.07 Q1010.7 1454.33 1007.59 1454.33 Q1005.4 1454.33 1002.94 1455.09 Q1000.51 1455.86 997.733 1457.41 L997.733 1452.69 Q1000.56 1451.55 1003.01 1450.97 Q1005.46 1450.39 1007.5 1450.39 Q1012.87 1450.39 1016.07 1453.08 Q1019.26 1455.77 1019.26 1460.26 Q1019.26 1462.39 1018.45 1464.31 Q1017.66 1466.2 1015.56 1468.8 Q1014.98 1469.47 1011.88 1472.69 Q1008.77 1475.88 1003.13 1481.64 Z" fill="#000000" fill-rule="nonzero" fill-opacity="1" /><path clip-path="url(#clip000)" d="M1252.23 1468.75 L1281.91 1468.75 L1281.91 1472.69 L1252.23 1472.69 L1252.23 1468.75 Z" fill="#000000" fill-rule="nonzero" fill-opacity="1" /><path clip-path="url(#clip000)" d="M1292.81 1481.64 L1300.45 1481.64 L1300.45 1455.28 L1292.14 1456.95 L1292.14 1452.69 L1300.4 1451.02 L1305.08 1451.02 L1305.08 1481.64 L1312.72 1481.64 L1312.72 1485.58 L1292.81 1485.58 L1292.81 1481.64 Z" fill="#000000" fill-rule="nonzero" fill-opacity="1" /><path clip-path="url(#clip000)" d="M1575.56 1454.1 Q1571.95 1454.1 1570.12 1457.66 Q1568.32 1461.2 1568.32 1468.33 Q1568.32 1475.44 1570.12 1479.01 Q1571.95 1482.55 1575.56 1482.55 Q1579.2 1482.55 1581 1479.01 Q1582.83 1475.44 1582.83 1468.33 Q1582.83 1461.2 1581 1457.66 Q1579.2 1454.1 1575.56 1454.1 M1575.56 1450.39 Q1581.37 1450.39 1584.43 1455 Q1587.51 1459.58 1587.51 1468.33 Q1587.51 1477.06 1584.43 1481.67 Q1581.37 1486.25 1575.56 1486.25 Q1569.75 1486.25 1566.68 1481.67 Q1563.62 1477.06 1563.62 1468.33 Q1563.62 1459.58 1566.68 1455 Q1569.75 1450.39 1575.56 1450.39 Z" fill="#000000" fill-rule="nonzero" fill-opacity="1" /><path clip-path="url(#clip000)" d="M1859.03 1481.64 L1866.67 1481.64 L1866.67 1455.28 L1858.36 1456.95 L1858.36 1452.69 L1866.63 1451.02 L1871.3 1451.02 L1871.3 1481.64 L1878.94 1481.64 L1878.94 1485.58 L1859.03 1485.58 L1859.03 1481.64 Z" fill="#000000" fill-rule="nonzero" fill-opacity="1" /><path clip-path="url(#clip000)" d="M2156.39 1481.64 L2172.71 1481.64 L2172.71 1485.58 L2150.77 1485.58 L2150.77 1481.64 Q2153.43 1478.89 2158.01 1474.26 Q2162.62 1469.61 2163.8 1468.27 Q2166.04 1465.74 2166.92 1464.01 Q2167.83 1462.25 2167.83 1460.56 Q2167.83 1457.8 2165.88 1456.07 Q2163.96 1454.33 2160.86 1454.33 Q2158.66 1454.33 2156.21 1455.09 Q2153.78 1455.86 2151 1457.41 L2151 1452.69 Q2153.82 1451.55 2156.28 1450.97 Q2158.73 1450.39 2160.77 1450.39 Q2166.14 1450.39 2169.33 1453.08 Q2172.53 1455.77 2172.53 1460.26 Q2172.53 1462.39 2171.72 1464.31 Q2170.93 1466.2 2168.82 1468.8 Q2168.24 1469.47 2165.14 1472.69 Q2162.04 1475.88 2156.39 1481.64 Z" fill="#000000" fill-rule="nonzero" fill-opacity="1" /><path clip-path="url(#clip000)" d="M1299.22 1532.4 L1286.33 1549.74 L1299.89 1568.04 L1292.98 1568.04 L1282.61 1554.04 L1272.23 1568.04 L1265.32 1568.04 L1279.17 1549.39 L1266.5 1532.4 L1273.41 1532.4 L1282.86 1545.1 L1292.32 1532.4 L1299.22 1532.4 Z" fill="#000000" fill-rule="nonzero" fill-opacity="1" /><polyline clip-path="url(#clip000)" style="stroke:#000000; stroke-linecap:round; stroke-linejoin:round; stroke-width:4; stroke-opacity:1; fill:none" points="212.459,1423.18 212.459,47.2441 "/>
<polyline clip-path="url(#clip000)" style="stroke:#000000; stroke-linecap:round; stroke-linejoin:round; stroke-width:4; stroke-opacity:1; fill:none" points="212.459,1287.01 231.357,1287.01 "/>
<polyline clip-path="url(#clip000)" style="stroke:#000000; stroke-linecap:round; stroke-linejoin:round; stroke-width:4; stroke-opacity:1; fill:none" points="212.459,1107.2 231.357,1107.2 "/>
<polyline clip-path="url(#clip000)" style="stroke:#000000; stroke-linecap:round; stroke-linejoin:round; stroke-width:4; stroke-opacity:1; fill:none" points="212.459,927.395 231.357,927.395 "/>
<polyline clip-path="url(#clip000)" style="stroke:#000000; stroke-linecap:round; stroke-linejoin:round; stroke-width:4; stroke-opacity:1; fill:none" points="212.459,747.587 231.357,747.587 "/>
<polyline clip-path="url(#clip000)" style="stroke:#000000; stroke-linecap:round; stroke-linejoin:round; stroke-width:4; stroke-opacity:1; fill:none" points="212.459,567.78 231.357,567.78 "/>
<polyline clip-path="url(#clip000)" style="stroke:#000000; stroke-linecap:round; stroke-linejoin:round; stroke-width:4; stroke-opacity:1; fill:none" points="212.459,387.972 231.357,387.972 "/>
<polyline clip-path="url(#clip000)" style="stroke:#000000; stroke-linecap:round; stroke-linejoin:round; stroke-width:4; stroke-opacity:1; fill:none" points="212.459,208.165 231.357,208.165 "/>
<path clip-path="url(#clip000)" d="M114.584 1287.46 L144.26 1287.46 L144.26 1291.4 L114.584 1291.4 L114.584 1287.46 Z" fill="#000000" fill-rule="nonzero" fill-opacity="1" /><path clip-path="url(#clip000)" d="M164.931 1285.15 Q161.783 1285.15 159.931 1287.3 Q158.103 1289.45 158.103 1293.2 Q158.103 1296.93 159.931 1299.1 Q161.783 1301.26 164.931 1301.26 Q168.079 1301.26 169.908 1299.1 Q171.76 1296.93 171.76 1293.2 Q171.76 1289.45 169.908 1287.3 Q168.079 1285.15 164.931 1285.15 M174.214 1270.49 L174.214 1274.75 Q172.454 1273.92 170.649 1273.48 Q168.866 1273.04 167.107 1273.04 Q162.477 1273.04 160.024 1276.16 Q157.593 1279.29 157.246 1285.61 Q158.612 1283.6 160.672 1282.53 Q162.732 1281.44 165.209 1281.44 Q170.417 1281.44 173.427 1284.61 Q176.459 1287.76 176.459 1293.2 Q176.459 1298.53 173.311 1301.74 Q170.163 1304.96 164.931 1304.96 Q158.936 1304.96 155.765 1300.38 Q152.593 1295.77 152.593 1287.04 Q152.593 1278.85 156.482 1273.99 Q160.371 1269.1 166.922 1269.1 Q168.681 1269.1 170.464 1269.45 Q172.269 1269.8 174.214 1270.49 Z" fill="#000000" fill-rule="nonzero" fill-opacity="1" /><path clip-path="url(#clip000)" d="M115.742 1107.65 L145.417 1107.65 L145.417 1111.59 L115.742 1111.59 L115.742 1107.65 Z" fill="#000000" fill-rule="nonzero" fill-opacity="1" /><path clip-path="url(#clip000)" d="M155.556 1089.92 L173.913 1089.92 L173.913 1093.86 L159.839 1093.86 L159.839 1102.33 Q160.857 1101.98 161.876 1101.82 Q162.894 1101.63 163.913 1101.63 Q169.7 1101.63 173.079 1104.81 Q176.459 1107.98 176.459 1113.39 Q176.459 1118.97 172.987 1122.07 Q169.514 1125.15 163.195 1125.15 Q161.019 1125.15 158.751 1124.78 Q156.505 1124.41 154.098 1123.67 L154.098 1118.97 Q156.181 1120.11 158.403 1120.66 Q160.626 1121.22 163.102 1121.22 Q167.107 1121.22 169.445 1119.11 Q171.783 1117.01 171.783 1113.39 Q171.783 1109.78 169.445 1107.68 Q167.107 1105.57 163.102 1105.57 Q161.227 1105.57 159.353 1105.99 Q157.501 1106.4 155.556 1107.28 L155.556 1089.92 Z" fill="#000000" fill-rule="nonzero" fill-opacity="1" /><path clip-path="url(#clip000)" d="M114.26 927.846 L143.936 927.846 L143.936 931.781 L114.26 931.781 L114.26 927.846 Z" fill="#000000" fill-rule="nonzero" fill-opacity="1" /><path clip-path="url(#clip000)" d="M166.876 914.189 L155.07 932.638 L166.876 932.638 L166.876 914.189 M165.649 910.115 L171.528 910.115 L171.528 932.638 L176.459 932.638 L176.459 936.526 L171.528 936.526 L171.528 944.675 L166.876 944.675 L166.876 936.526 L151.274 936.526 L151.274 932.013 L165.649 910.115 Z" fill="#000000" fill-rule="nonzero" fill-opacity="1" /><path clip-path="url(#clip000)" d="M115.394 748.038 L145.07 748.038 L145.07 751.974 L115.394 751.974 L115.394 748.038 Z" fill="#000000" fill-rule="nonzero" fill-opacity="1" /><path clip-path="url(#clip000)" d="M169.329 746.233 Q172.686 746.95 174.561 749.219 Q176.459 751.487 176.459 754.821 Q176.459 759.936 172.94 762.737 Q169.422 765.538 162.94 765.538 Q160.765 765.538 158.45 765.098 Q156.158 764.682 153.704 763.825 L153.704 759.311 Q155.649 760.446 157.964 761.024 Q160.278 761.603 162.802 761.603 Q167.2 761.603 169.491 759.867 Q171.806 758.131 171.806 754.821 Q171.806 751.765 169.653 750.052 Q167.524 748.316 163.704 748.316 L159.677 748.316 L159.677 744.474 L163.89 744.474 Q167.339 744.474 169.167 743.108 Q170.996 741.719 170.996 739.126 Q170.996 736.464 169.098 735.052 Q167.223 733.617 163.704 733.617 Q161.783 733.617 159.584 734.034 Q157.385 734.451 154.746 735.33 L154.746 731.163 Q157.408 730.423 159.723 730.052 Q162.061 729.682 164.121 729.682 Q169.445 729.682 172.547 732.113 Q175.649 734.52 175.649 738.64 Q175.649 741.511 174.005 743.501 Q172.362 745.469 169.329 746.233 Z" fill="#000000" fill-rule="nonzero" fill-opacity="1" /><path clip-path="url(#clip000)" d="M116.343 568.231 L146.019 568.231 L146.019 572.166 L116.343 572.166 L116.343 568.231 Z" fill="#000000" fill-rule="nonzero" fill-opacity="1" /><path clip-path="url(#clip000)" d="M160.14 581.124 L176.459 581.124 L176.459 585.06 L154.515 585.06 L154.515 581.124 Q157.177 578.37 161.76 573.74 Q166.366 569.087 167.547 567.745 Q169.792 565.222 170.672 563.486 Q171.575 561.726 171.575 560.036 Q171.575 557.282 169.63 555.546 Q167.709 553.81 164.607 553.81 Q162.408 553.81 159.954 554.574 Q157.524 555.337 154.746 556.888 L154.746 552.166 Q157.57 551.032 160.024 550.453 Q162.477 549.875 164.515 549.875 Q169.885 549.875 173.079 552.56 Q176.274 555.245 176.274 559.736 Q176.274 561.865 175.464 563.786 Q174.677 565.685 172.57 568.277 Q171.991 568.948 168.889 572.166 Q165.788 575.36 160.14 581.124 Z" fill="#000000" fill-rule="nonzero" fill-opacity="1" /><path clip-path="url(#clip000)" d="M115.973 388.423 L145.649 388.423 L145.649 392.359 L115.973 392.359 L115.973 388.423 Z" fill="#000000" fill-rule="nonzero" fill-opacity="1" /><path clip-path="url(#clip000)" d="M156.552 401.317 L164.19 401.317 L164.19 374.951 L155.88 376.618 L155.88 372.359 L164.144 370.692 L168.82 370.692 L168.82 401.317 L176.459 401.317 L176.459 405.252 L156.552 405.252 L156.552 401.317 Z" fill="#000000" fill-rule="nonzero" fill-opacity="1" /><path clip-path="url(#clip000)" d="M164.515 193.963 Q160.903 193.963 159.075 197.528 Q157.269 201.07 157.269 208.199 Q157.269 215.306 159.075 218.87 Q160.903 222.412 164.515 222.412 Q168.149 222.412 169.954 218.87 Q171.783 215.306 171.783 208.199 Q171.783 201.07 169.954 197.528 Q168.149 193.963 164.515 193.963 M164.515 190.26 Q170.325 190.26 173.38 194.866 Q176.459 199.449 176.459 208.199 Q176.459 216.926 173.38 221.532 Q170.325 226.116 164.515 226.116 Q158.704 226.116 155.626 221.532 Q152.57 216.926 152.57 208.199 Q152.57 199.449 155.626 194.866 Q158.704 190.26 164.515 190.26 Z" fill="#000000" fill-rule="nonzero" fill-opacity="1" /><path clip-path="url(#clip000)" d="M67.3143 733.525 Q73.68 736.008 75.6216 738.363 Q77.5631 740.718 77.5631 744.665 L77.5631 749.344 L72.6615 749.344 L72.6615 745.906 Q72.6615 743.487 71.5157 742.151 Q70.3699 740.814 66.1048 739.191 L63.4312 738.14 L28.3562 752.559 L28.3562 746.352 L56.238 735.212 L28.3562 724.072 L28.3562 717.865 L67.3143 733.525 Z" fill="#000000" fill-rule="nonzero" fill-opacity="1" /><circle clip-path="url(#clip002)" cx="1722.11" cy="229.741" r="14.4" fill="#009af9" fill-rule="evenodd" fill-opacity="1" stroke="#000000" stroke-opacity="1" stroke-width="3.2"/>
<circle clip-path="url(#clip002)" cx="1927.27" cy="316.049" r="14.4" fill="#009af9" fill-rule="evenodd" fill-opacity="1" stroke="#000000" stroke-opacity="1" stroke-width="3.2"/>
<circle clip-path="url(#clip002)" cx="2044.5" cy="387.972" r="14.4" fill="#009af9" fill-rule="evenodd" fill-opacity="1" stroke="#000000" stroke-opacity="1" stroke-width="3.2"/>
<circle clip-path="url(#clip002)" cx="2120.71" cy="459.895" r="14.4" fill="#009af9" fill-rule="evenodd" fill-opacity="1" stroke="#000000" stroke-opacity="1" stroke-width="3.2"/>
<circle clip-path="url(#clip002)" cx="2196.91" cy="664.876" r="14.4" fill="#009af9" fill-rule="evenodd" fill-opacity="1" stroke="#000000" stroke-opacity="1" stroke-width="3.2"/>
<circle clip-path="url(#clip002)" cx="2267.25" cy="812.318" r="14.4" fill="#009af9" fill-rule="evenodd" fill-opacity="1" stroke="#000000" stroke-opacity="1" stroke-width="3.2"/>
<circle clip-path="url(#clip002)" cx="2290.7" cy="927.395" r="14.4" fill="#009af9" fill-rule="evenodd" fill-opacity="1" stroke="#000000" stroke-opacity="1" stroke-width="3.2"/>
<circle clip-path="url(#clip002)" cx="2267.25" cy="1062.25" r="14.4" fill="#009af9" fill-rule="evenodd" fill-opacity="1" stroke="#000000" stroke-opacity="1" stroke-width="3.2"/>
<circle clip-path="url(#clip002)" cx="2179.32" cy="1152.15" r="14.4" fill="#009af9" fill-rule="evenodd" fill-opacity="1" stroke="#000000" stroke-opacity="1" stroke-width="3.2"/>
<circle clip-path="url(#clip002)" cx="2085.54" cy="1222.28" r="14.4" fill="#009af9" fill-rule="evenodd" fill-opacity="1" stroke="#000000" stroke-opacity="1" stroke-width="3.2"/>
<circle clip-path="url(#clip002)" cx="1968.3" cy="1281.62" r="14.4" fill="#009af9" fill-rule="evenodd" fill-opacity="1" stroke="#000000" stroke-opacity="1" stroke-width="3.2"/>
<circle clip-path="url(#clip002)" cx="1839.34" cy="1344.55" r="14.4" fill="#009af9" fill-rule="evenodd" fill-opacity="1" stroke="#000000" stroke-opacity="1" stroke-width="3.2"/>
<circle clip-path="url(#clip002)" cx="1493.5" cy="1366.12" r="14.4" fill="#009af9" fill-rule="evenodd" fill-opacity="1" stroke="#000000" stroke-opacity="1" stroke-width="3.2"/>
<circle clip-path="url(#clip002)" cx="1346.96" cy="1366.12" r="14.4" fill="#009af9" fill-rule="evenodd" fill-opacity="1" stroke="#000000" stroke-opacity="1" stroke-width="3.2"/>
<circle clip-path="url(#clip002)" cx="1176.96" cy="1360.73" r="14.4" fill="#009af9" fill-rule="evenodd" fill-opacity="1" stroke="#000000" stroke-opacity="1" stroke-width="3.2"/>
<circle clip-path="url(#clip002)" cx="1018.7" cy="1331.96" r="14.4" fill="#009af9" fill-rule="evenodd" fill-opacity="1" stroke="#000000" stroke-opacity="1" stroke-width="3.2"/>
<circle clip-path="url(#clip002)" cx="842.845" cy="1265.43" r="14.4" fill="#009af9" fill-rule="evenodd" fill-opacity="1" stroke="#000000" stroke-opacity="1" stroke-width="3.2"/>
<circle clip-path="url(#clip002)" cx="731.471" cy="1197.11" r="14.4" fill="#009af9" fill-rule="evenodd" fill-opacity="1" stroke="#000000" stroke-opacity="1" stroke-width="3.2"/>
<circle clip-path="url(#clip002)" cx="643.545" cy="1150.36" r="14.4" fill="#009af9" fill-rule="evenodd" fill-opacity="1" stroke="#000000" stroke-opacity="1" stroke-width="3.2"/>
<circle clip-path="url(#clip002)" cx="567.342" cy="1082.03" r="14.4" fill="#009af9" fill-rule="evenodd" fill-opacity="1" stroke="#000000" stroke-opacity="1" stroke-width="3.2"/>
<polyline clip-path="url(#clip002)" style="stroke:#ffa500; stroke-linecap:round; stroke-linejoin:round; stroke-width:8; stroke-opacity:1; fill:none" points="1983.48,1281.01 2006.07,1269.65 2027.94,1257.75 2049.07,1245.34 2069.44,1232.42 2089.02,1219 2107.8,1205.1 2125.75,1190.73 2142.87,1175.91 2159.13,1160.65 2174.51,1144.96 2189,1128.87 2202.59,1112.38 2215.27,1095.52 2227.01,1078.3 2237.82,1060.74 2247.67,1042.85 2256.56,1024.65 2264.48,1006.17 2271.41,987.416 2277.37,968.411 2282.33,949.173 2286.3,929.723 2289.26,910.078 2291.22,890.259 2292.18,870.285 2292.13,850.177 2291.08,829.954 2289.01,809.637 2285.95,789.245 2281.89,768.8 2276.83,748.321 2270.77,727.829 2263.74,707.344 2255.72,686.888 2246.74,666.479 2236.79,646.138 2225.9,625.887 2214.06,605.744 2201.3,585.731 2187.62,565.866 2173.03,546.171 2157.56,526.663 2141.22,507.364 2124.02,488.291 2105.98,469.465 2087.13,450.904 2067.47,432.626 2047.02,414.649 2025.82,396.993 2003.88,379.673 1981.21,362.707 1957.85,346.113 1933.82,329.907 1909.14,314.105 1883.83,298.722 1857.92,283.775 1831.45,269.278 1804.42,255.245 1776.87,241.69 1748.83,228.627 1720.33,216.07 1691.39,204.029 1662.04,192.519 1632.32,181.549 1602.24,171.131 1571.85,161.275 1541.17,151.992 1510.23,143.289 1479.06,135.177 1447.7,127.663 1416.18,120.755 1384.52,114.459 1352.76,108.781 1320.93,103.728 1289.06,99.305 1257.18,95.5155 1225.33,92.3636 1193.54,89.8525 1161.84,87.9847 1130.25,86.762 1098.82,86.1857 1067.57,86.2563 1036.54,86.9738 1005.75,88.3374 975.24,90.3459 945.034,92.9971 915.165,96.2885 885.662,100.217 856.555,104.778 827.873,109.968 799.643,115.78 771.896,122.211 744.657,129.252 717.955,136.897 691.816,145.139 666.266,153.969 641.33,163.378 617.033,173.358 593.4,183.897 570.454,194.986 548.218,206.613 526.714,218.767 505.964,231.436 485.987,244.608 466.805,258.268 448.437,272.403 430.899,287 414.211,302.044 398.389,317.519 383.448,333.411 369.403,349.704 356.269,366.38 344.058,383.424 332.782,400.819 322.454,418.547 313.083,436.591 304.678,454.932 297.248,473.553 290.801,492.435 285.342,511.558 280.877,530.905 277.411,550.455 274.947,570.189 273.487,590.088 273.033,610.131 273.586,630.3 275.145,650.572 277.708,670.929 281.272,691.35 285.835,711.815 291.392,732.303 297.937,752.794 305.463,773.267 313.963,793.703 323.429,814.08 333.851,834.378 345.219,854.578 357.522,874.658 370.746,894.6 384.88,914.382 399.908,933.986 415.817,953.392 432.59,972.58 450.209,991.532 468.659,1010.23 487.92,1028.65 507.974,1046.78 528.799,1064.6 550.376,1082.09 572.683,1099.23 595.698,1116.02 619.398,1132.42 643.758,1148.42 668.756,1164.02 694.365,1179.19 720.561,1193.91 747.317,1208.18 774.607,1221.97 802.403,1235.28 830.678,1248.09 859.404,1260.39 888.551,1272.17 918.092,1283.41 947.995,1294.11 978.233,1304.25 1008.77,1313.82 1039.59,1322.81 1070.64,1331.22 1101.91,1339.03 1133.36,1346.25 1164.95,1352.85 1196.67,1358.84 1228.47,1364.2 1260.32,1368.94 1292.2,1373.05 1324.06,1376.52 1355.89,1379.35 1387.64,1381.54 1419.29,1383.09 1450.8,1383.99 1482.14,1384.24 1513.29,1383.84 1544.2,1382.8 1574.86,1381.12 1605.22,1378.79 1635.26,1375.82 1664.95,1372.21 1694.26,1367.96 1723.16,1363.08 1751.62,1357.58 1779.61,1351.46 1807.1,1344.72 1834.08,1337.38 1860.5,1329.43 1886.35,1320.9 1911.6,1311.78 1936.22,1302.08 1960.18,1291.82 1983.48,1281.01 "/>
</svg>
